<?xml version="1.0" encoding="utf-8"?>
<!-- Generator: Adobe Illustrator 16.0.3, SVG Export Plug-In . SVG Version: 6.00 Build 0)  -->
<!DOCTYPE svg PUBLIC "-//W3C//DTD SVG 1.1//EN" "http://www.w3.org/Graphics/SVG/1.1/DTD/svg11.dtd">
<svg version="1.1" id="Layer_1" xmlns="http://www.w3.org/2000/svg" xmlns:xlink="http://www.w3.org/1999/xlink" x="0px" y="0px"
	 width="25px" height="64.334px" viewBox="0 0 25 64.334" enable-background="new 0 0 25 64.334" xml:space="preserve">
<path fill="#ED2224" d="M12.501,21.429c-0.223,0-0.446-0.084-0.614-0.251L3.181,12.78C3.07,12.683,0,9.877,0,6.529
	C0,2.442,2.497,0,6.668,0c2.441,0,4.73,1.925,5.832,3.013C13.602,1.925,15.891,0,18.331,0C22.503,0,25,2.441,25,6.529
	c0,3.348-3.068,6.153-3.193,6.277l-8.69,8.371C12.947,21.345,12.724,21.429,12.501,21.429L12.501,21.429z"/>
<path fill="#FFFFFF" d="M12.502,51.429c-0.224,0-0.446-0.084-0.614-0.25L3.183,42.78c-0.111-0.098-3.182-2.901-3.182-6.25
	c0-4.088,2.497-6.53,6.668-6.53c2.441,0,4.73,1.925,5.832,3.013C13.602,31.925,15.891,30,18.332,30c4.172,0,6.669,2.44,6.669,6.528
	c0,3.35-3.067,6.154-3.194,6.277l-8.688,8.37C12.948,51.345,12.724,51.429,12.502,51.429L12.502,51.429z"/>
<path d="M23.214,36.528c0-3.92-2.649-4.742-4.882-4.742c-2.079,0-4.423,2.246-5.146,3.109c-0.335,0.403-1.034,0.403-1.369,0
	c-0.725-0.864-3.069-3.109-5.148-3.109c-2.232,0-4.883,0.822-4.883,4.742c0,2.553,2.581,4.926,2.609,4.953l8.104,7.813l8.093-7.798
	C20.634,41.454,23.214,39.083,23.214,36.528z M25,36.528c0,3.35-3.068,6.152-3.193,6.277l-8.69,8.369
	c-0.166,0.166-0.391,0.251-0.613,0.251c-0.224,0-0.447-0.085-0.615-0.251l-8.705-8.396C3.069,42.683,0,39.878,0,36.528
	C0,32.442,2.497,30,6.668,30c2.441,0,4.729,1.925,5.831,3.013C13.602,31.925,15.891,30,18.33,30C22.502,30,24.999,32.44,25,36.528
	L25,36.528z"/>
<path d="M23.214,6.528c0-3.92-2.649-4.742-4.882-4.742c-2.079,0-4.423,2.246-5.146,3.109c-0.335,0.403-1.034,0.403-1.369,0
	c-0.725-0.864-3.069-3.109-5.148-3.109c-2.232,0-4.883,0.822-4.883,4.742c0,2.553,2.581,4.926,2.609,4.953l8.104,7.813l8.093-7.798
	C20.634,11.454,23.214,9.083,23.214,6.528z M25,6.528c0,3.35-3.068,6.152-3.193,6.277l-8.69,8.369
	c-0.166,0.166-0.391,0.251-0.613,0.251c-0.224,0-0.447-0.085-0.615-0.251l-8.705-8.396C3.069,12.683,0,9.878,0,6.528
	C0,2.442,2.497,0,6.668,0c2.441,0,4.729,1.925,5.831,3.013C13.602,1.925,15.891,0,18.33,0C22.502,0,24.999,2.44,25,6.528L25,6.528z"
	/>
</svg>
