<?xml version="1.0" encoding="utf-8"?>
<!-- Generator: Adobe Illustrator 16.0.3, SVG Export Plug-In . SVG Version: 6.00 Build 0)  -->
<!DOCTYPE svg PUBLIC "-//W3C//DTD SVG 1.1//EN" "http://www.w3.org/Graphics/SVG/1.1/DTD/svg11.dtd">
<svg version="1.1" id="Layer_1" xmlns="http://www.w3.org/2000/svg" xmlns:xlink="http://www.w3.org/1999/xlink" x="0px" y="0px"
	 width="50px" height="120.25px" viewBox="0 0 50 120.25" enable-background="new 0 0 50 120.25" xml:space="preserve">
<title>folder-images</title>
<path fill="#3884C5" d="M45.993,1.997C45.714,0.897,44.354,0,42.971,0H6.995C5.606,0,4.247,0.897,3.97,1.997L3.467,5h43.029
	L45.993,1.997z M48.512,7.501H1.448c-0.854,0-1.521,0.733-1.442,1.586l2.309,29.174C2.41,39.246,3.24,40,4.229,40H45.73
	c0.994,0,1.819-0.754,1.918-1.738l2.308-29.174C50.036,8.234,49.367,7.501,48.512,7.501z M31.075,15.938
	c1.297,0,2.346,1.05,2.346,2.345c0,1.296-1.049,2.346-2.346,2.346c-1.294,0-2.345-1.053-2.345-2.348
	C28.73,16.987,29.781,15.938,31.075,15.938z M13.731,30l6.215-14.285l7.066,11.439l6.062-3.01L36.232,30H13.731z"/>
<g>
	<path fill="#C40517" d="M45.994,61.997C45.715,60.896,44.354,60,42.972,60H6.996c-1.389,0-2.748,0.896-3.024,1.997L3.467,65h43.03
		L45.994,61.997z"/>
	<path fill="#C40517" d="M48.513,67.501H1.449c-0.854,0-1.521,0.733-1.442,1.586l2.31,29.174C2.411,99.246,3.241,100,4.23,100
		h41.501c0.994,0,1.819-0.754,1.918-1.738l2.308-29.174C50.037,68.234,49.368,67.501,48.513,67.501z M34.289,86.807l-8.691,8.37
		c-0.168,0.169-0.391,0.253-0.615,0.253c-0.223,0-0.446-0.084-0.614-0.252l-8.706-8.398c-0.111-0.096-3.181-2.902-3.181-6.25
		c0-4.088,2.497-6.529,6.668-6.529c2.441,0,4.73,1.925,5.832,3.014C26.084,75.925,28.373,74,30.813,74
		c4.172,0,6.669,2.441,6.669,6.529C37.482,83.877,34.414,86.682,34.289,86.807z"/>
</g>
</svg>
